<?xml version="1.0" encoding="UTF-8"?>
<svg id="Laag_1" xmlns="http://www.w3.org/2000/svg" version="1.1" viewBox="0 0 755 376">
  <defs>
    <style>.st0{fill:#fa3b00;}</style>
  </defs>
  <path class="st0" d="M347.61,104.15h-82.49c-2.11,0-26.92-18.28-36.22-21.67C126.58,45.16,36.72,156.33,93.42,249.8c48.74,80.35,178.19,63.75,202.09-26.98h-107.09v-69.47h179.45c35.12,183.73-199.18,297.88-319.87,150.55C-74.9,153.87,93.55-61.23,271.42,25.49c28.98,14.13,65.82,48.16,76.19,78.66h0Z"/>
  <path class="st0" d="M747.05,222.82h-179.45v-69.47h104.2c-9.97-49.98-64.59-81.82-114.29-78.09-146.19,10.96-133.68,245.43,28.59,225.39,23.39-2.89,54.93-28.62,58.21-28.62h82.49c-56.64,121.2-228.53,132.28-306.32,24.11-101.31-140.85,30.17-328.5,196.35-283.19,89.5,24.4,147.18,118.8,130.23,209.87h-.01Z"/>
</svg>
